<svg id="Capa_1" enable-background="new 0 0 511.764 511.764" height="512" viewBox="0 0 511.764 511.764" width="512" xmlns="http://www.w3.org/2000/svg" xmlns:xlink="http://www.w3.org/1999/xlink"><linearGradient id="SVGID_1_" gradientUnits="userSpaceOnUse" x1="255.882" x2="255.882" y1="511.764" y2="0"><stop offset="0" stop-color="#009efd"/><stop offset="1" stop-color="#2af598"/></linearGradient><g><g><path d="m275.882 160h-40v80h80v-40h-40zm-20-160c-121.309 0-220 98.692-220 220 0 88.661 39.724 123.884 119.024 196.319 73.923 67.524 86.256 81.377 100.976 95.444 14.027-13.398 27.684-28.52 100.928-95.328 77.185-70.404 119.072-106.635 119.072-196.435 0-121.308-98.692-220-220-220zm73.972 386.883c-21.712 19.804-45.912 41.879-73.971 68.962-28.093-27.126-52.292-49.229-74-69.059-79.29-72.427-106.001-96.825-106.001-166.786 0-99.252 80.748-180 180-180s180 80.748 180 180c0 70.169-26.718 94.54-106.028 166.883zm-73.972-306.883c-77.196 0-140 62.804-140 140s62.804 140 140 140 140-62.804 140-140-62.804-140-140-140zm0 240c-55.14 0-100-44.86-100-100s44.86-100 100-100 100 44.86 100 100-44.86 100-100 100z" fill="url(#SVGID_1_)"/></g></g></svg>