<svg height="512pt" viewBox="0 0 512 512" width="512pt" xmlns="http://www.w3.org/2000/svg" xmlns:xlink="http://www.w3.org/1999/xlink"><linearGradient id="a" gradientUnits="userSpaceOnUse" x1="0" x2="512" y1="256" y2="256"><stop offset="0" stop-color="#00f38d"/><stop offset="1" stop-color="#009eff"/></linearGradient><path d="m512 256c0 141.386719-114.613281 256-256 256s-256-114.613281-256-256 114.613281-256 256-256 256 114.613281 256 256zm0 0" fill="url(#a)"/><g fill="#fff"><path d="m399.871094 228.304688v60.285156l-17.796875-55.769532v-4.515624h-30v145.410156h30v-62.398438l17.796875 55.773438v6.625h30v-145.410156zm0 0"/><path d="m334.089844 256.769531v-30h-59.429688v148.480469h59.429688v-30h-29.429688v-34.625h29.429688v-30h-29.429688v-23.855469zm0 0"/><path d="m122.371094 375.25c22.191406 0 40.246094-18.054688 40.246094-40.242188v-67.996093c0-22.191407-18.054688-40.242188-40.246094-40.242188s-40.242188 18.050781-40.242188 40.242188v67.996093c0 22.1875 18.050782 40.242188 40.242188 40.242188zm-10.242188-108.238281c0-5.648438 4.59375-10.242188 10.242188-10.242188 5.648437 0 10.246094 4.59375 10.246094 10.242188v67.992187c0 5.648438-4.597657 10.246094-10.246094 10.246094-5.648438 0-10.242188-4.597656-10.242188-10.246094zm0 0"/><path d="m180.410156 226.769531v146.945313h30v-63.09375h8.566406c23.117188 0 41.925782-18.808594 41.925782-41.925782 0-23.121093-18.808594-41.929687-41.925782-41.929687h-38.566406zm50.492188 41.925781c0 6.578126-5.351563 11.929688-11.929688 11.929688h-8.5625v-23.855469h8.5625c6.578125 0 11.929688 5.347657 11.929688 11.925781zm0 0"/><path d="m83.664062 399.105469h344.671876v30h-344.671876zm0 0"/><path d="m428.335938 172.914062h-39.46875l-113.371094-70.636718c-.253906-10.746094-9.027344-19.382813-19.832032-19.382813-10.953124 0-19.835937 8.867188-19.859374 19.816407l-112.675782 70.203124h-39.464844v30h344.671876zm-172.335938-47.4375 76.136719 47.4375h-152.273438zm0 0"/></g></svg>