<svg height="512pt" viewBox="0 0 512 512" width="512pt" xmlns="http://www.w3.org/2000/svg" xmlns:xlink="http://www.w3.org/1999/xlink"><linearGradient id="a" gradientTransform="matrix(1 0 0 -1 0 -10886)" gradientUnits="userSpaceOnUse" x1="0" x2="512" y1="-11142" y2="-11142"><stop offset="0" stop-color="#00f38d"/><stop offset="1" stop-color="#009eff"/></linearGradient><path d="m512 256c0 141.386719-114.613281 256-256 256s-256-114.613281-256-256 114.613281-256 256-256 256 114.613281 256 256zm0 0" fill="url(#a)"/><path d="m334.320312 271.964844-38.121093 36.910156c-11.050781-6.3125-31.3125-19.460938-53.308594-41.453125-21.996094-21.996094-35.285156-42.40625-41.695313-53.558594l36.894532-37.371093-94.578125-95.148438-46.621094 46.316406c-17.75 17.75-22.351563 44.753906-11.445313 67.207032 16.28125 33.519531 46.320313 84.109374 96.960938 134.75 50.644531 50.644531 101.234375 80.683593 134.753906 96.964843 8.117188 3.941407 16.828125 5.855469 25.488282 5.855469 15.28125 0 30.386718-5.96875 41.714843-17.300781l46.40625-46.566407zm28.820313 121.972656c-8.714844 8.703125-21.925781 10.976562-32.875 5.660156-31.449219-15.277344-78.949219-43.496094-126.644531-91.191406-47.695313-47.695312-75.914063-95.195312-91.1875-126.644531-5.324219-10.957031-3.042969-24.171875 5.632812-32.851563l25.3125-25.144531 52.484375 52.800781-30.925781 31.320313 4.167969 9.355469c.617187 1.386718 15.535156 34.355468 52.574219 71.394531 37.066406 37.066406 69.765624 51.679687 71.136718 52.28125l9.230469 4.058593 31.917969-30.90625 54.433594 54.523438zm0 0" fill="#fff"/></svg>